<svg xmlns="http://www.w3.org/2000/svg" xmlns:xlink="http://www.w3.org/1999/xlink" width="172" height="155" viewBox="0 0 172 155">
  <defs>
    <clipPath id="clip-Cart_Empty">
      <rect width="172" height="155"/>
    </clipPath>
  </defs>
  <g id="Cart_Empty" clip-path="url(#clip-Cart_Empty)">
    <rect width="172" height="155" fill="rgba(255,255,255,0)"/>
    <g id="E-Commerce_05" data-name="E-Commerce 05" transform="translate(-83.552 -38.121) rotate(-9)">
      <path id="Path_2" data-name="Path 2" d="M230.879,129.868l-.218,1.356a4.314,4.314,0,0,1-4.944,3.575l-.1-.015a4.314,4.314,0,0,0-4.655,2.571L190.37,209.307a10.106,10.106,0,0,1-10.907,6.031L94.143,201.63a10.078,10.078,0,0,1-8.488-9.425l-4.237-77.149a4.313,4.313,0,0,0-3.623-4.023,4.314,4.314,0,0,1-3.575-4.944l.218-1.356a4.313,4.313,0,0,1,4.944-3.575l36.143,5.807a2.919,2.919,0,0,0,2.9-1.278l25.242-38.41a3.163,3.163,0,0,1,3.146-1.393,3.07,3.07,0,0,1,1.225.474,3.169,3.169,0,0,1,.915,4.391L126.7,104.6a2.917,2.917,0,0,0,1.974,4.481l48.1,7.728a2.915,2.915,0,0,0,3.278-3.638L169.512,74.053a3.188,3.188,0,0,1,2.245-3.883,3.065,3.065,0,0,1,1.312-.066,3.165,3.165,0,0,1,2.551,2.308l11.94,44.384a2.916,2.916,0,0,0,2.354,2.122l37.389,6.007a4.316,4.316,0,0,1,3.576,4.944Z" fill="#64748b"/>
      <path id="Path_3" data-name="Path 3" d="M117.628,119.3l-9.422-1.514a.139.139,0,0,0-.16.116L96.816,187.79a.14.14,0,0,0,.116.16l9.422,1.514a.14.14,0,0,0,.161-.116l11.229-69.888A.14.14,0,0,0,117.628,119.3Z" fill="#dbe0e7"/>
      <path id="Path_4" data-name="Path 4" d="M195.624,131.609,186.2,130.1a.139.139,0,0,0-.16.116L174.812,200.1a.14.14,0,0,0,.116.16l9.422,1.514a.14.14,0,0,0,.161-.116l11.229-69.888A.14.14,0,0,0,195.624,131.609Z" fill="#dbe0e7"/>
      <path id="Path_5" data-name="Path 5" d="M137.031,122.438l-9.419-1.518a.14.14,0,0,0-.16.116L116.2,190.9a.139.139,0,0,0,.116.16l9.418,1.518a.14.14,0,0,0,.161-.116L137.147,122.6A.14.14,0,0,0,137.031,122.438Z" fill="#dbe0e7"/>
      <path id="Path_6" data-name="Path 6" d="M156.643,125.345l-9.422-1.514a.14.14,0,0,0-.16.116l-11.229,69.888a.139.139,0,0,0,.116.161l9.422,1.514a.14.14,0,0,0,.16-.116l11.229-69.888A.139.139,0,0,0,156.643,125.345Z" fill="#dbe0e7"/>
      <path id="Path_7" data-name="Path 7" d="M176.134,128.477l-9.422-1.514a.14.14,0,0,0-.16.116l-11.23,69.888a.142.142,0,0,0,.116.161l9.422,1.513a.14.14,0,0,0,.161-.116l11.229-69.888A.14.14,0,0,0,176.134,128.477Z" fill="#dbe0e7"/>
    </g>
  </g>
</svg>
