<svg id="gallery-add_bold" data-name="gallery-add/bold" xmlns="http://www.w3.org/2000/svg" width="24" height="24" viewBox="0 0 24 24">
  <g id="vuesax_bold_gallery-add" data-name="vuesax/bold/gallery-add">
    <g id="gallery-add">
      <path id="Vector" d="M4.97,0H2.03A1.831,1.831,0,0,0,.23,1,2.09,2.09,0,0,0,0,2.03V4.97A1.866,1.866,0,0,0,2.03,7H4.97A2.09,2.09,0,0,0,6,6.77a1.831,1.831,0,0,0,1-1.8V2.03A1.866,1.866,0,0,0,4.97,0Zm.94,3.93a.647.647,0,0,1-.41.18H4.09v.51l.01.88a.632.632,0,0,1-.19.43.59.59,0,0,1-.41.17.6.6,0,0,1-.6-.6V4.1l-1.4.01A.61.61,0,0,1,.9,3.5a.6.6,0,0,1,.6-.6l.88.01H2.9V1.51a.6.6,0,1,1,1.2,0l-.01.71V2.9H5.5a.6.6,0,0,1,.6.6A.681.681,0,0,1,5.91,3.93Z" transform="translate(16 1)" fill="#64748b"/>
      <path id="Vector-2" data-name="Vector" d="M4.76,2.38A2.38,2.38,0,1,1,2.38,0,2.38,2.38,0,0,1,4.76,2.38Z" transform="translate(6.62 5.62)" fill="#64748b"/>
      <path id="Vector-3" data-name="Vector" d="M18.97,6H18.5v4.61l-.13-.11a2.229,2.229,0,0,0-2.82,0l-4.16,3.57a2.229,2.229,0,0,1-2.82,0l-.34-.28a2.221,2.221,0,0,0-2.64-.14L1.85,16.16a5.333,5.333,0,0,1-.35-1.97V5.81C1.5,2.99,2.99,1.5,5.81,1.5H14V1.03A2.09,2.09,0,0,1,14.23,0H5.81C2.17,0,0,2.17,0,5.81v8.38a6.723,6.723,0,0,0,.56,2.84C1.42,18.93,3.26,20,5.81,20h8.38C17.83,20,20,17.83,20,14.19V5.77A2.09,2.09,0,0,1,18.97,6Z" transform="translate(2 2)" fill="#64748b"/>
      <path id="Vector-4" data-name="Vector" d="M0,0H24V24H0Z" fill="none" opacity="0"/>
    </g>
  </g>
</svg>
