<svg xmlns="http://www.w3.org/2000/svg" width="40" height="40" viewBox="0 0 40 40"><path fill="#bae0bd" d="M35,31.5c-1.93,0-3.5-1.57-3.5-3.5c0-0.242,0.031-0.5,0.098-0.785l0.055-0.234L31.5,26.793 c-0.652-0.816-1-1.785-1-2.793c0-0.48,0.09-0.969,0.277-1.492l0.098-0.281l-0.199-0.219C29.918,21.168,29.5,20.102,29.5,19 c0-0.309,0.031-0.613,0.094-0.91l0.125-0.609l-0.656,0.012L28.98,17.5c-2.156,0-4.012-1.559-4.398-3.703l-0.059-0.324l-0.32-0.074 c-0.227-0.051-0.426-0.117-0.609-0.199l-0.305-0.133l-0.238,0.223C22.207,14.07,21.125,14.5,20,14.5s-2.207-0.43-3.051-1.211 l-0.238-0.223l-0.301,0.133c-0.188,0.082-0.387,0.148-0.613,0.199l-0.32,0.078l-0.059,0.324C15.031,15.941,13.176,17.5,11,17.5 c-0.02-0.004-0.055-0.012-0.098-0.012l-0.621-0.008l0.125,0.609C10.469,18.387,10.5,18.691,10.5,19 c0,1.102-0.418,2.168-1.176,3.004l-0.199,0.223l0.102,0.281C9.41,23.031,9.5,23.52,9.5,24c0,1.008-0.348,1.973-1,2.793L8.352,26.98 l0.051,0.234C8.469,27.5,8.5,27.758,8.5,28c0,1.93-1.57,3.5-3.5,3.5S1.5,29.93,1.5,28c0-0.242,0.031-0.5,0.098-0.785l0.055-0.234 L1.5,26.793c-0.652-0.82-1-1.785-1-2.793c0-1.102,0.418-2.168,1.176-3.004l0.199-0.223l-0.102-0.281C1.59,19.969,1.5,19.48,1.5,19 c0-1.41,0.656-2.715,1.805-3.578l0.199-0.152v-0.25C3.5,13.27,4.746,11.82,6.469,11.555l0.273-0.039l0.109-0.258 C7.555,9.582,9.184,8.5,11,8.5c0.102,0,0.199,0.016,0.297,0.027l0.504,0.059l0.16-0.289C12.586,7.188,13.75,6.5,15,6.5 c0.48,0,0.957,0.102,1.41,0.301l0.301,0.133l0.238-0.223C17.793,5.93,18.875,5.5,20,5.5s2.207,0.43,3.051,1.211l0.238,0.223 l0.301-0.133C24.043,6.602,24.52,6.5,25,6.5c1.25,0,2.414,0.688,3.039,1.797l0.16,0.289l0.504-0.059 C28.801,8.516,28.898,8.5,29,8.5c1.816,0,3.445,1.082,4.148,2.754l0.109,0.258l0.273,0.043C35.254,11.82,36.5,13.27,36.5,15v0.25 l0.195,0.172C37.844,16.285,38.5,17.59,38.5,19c0,0.48-0.09,0.969-0.273,1.492l-0.102,0.281l0.199,0.219 C39.082,21.832,39.5,22.898,39.5,24c0,1.008-0.348,1.973-1,2.793l-0.148,0.188l0.051,0.234C38.469,27.5,38.5,27.758,38.5,28 C38.5,29.93,36.93,31.5,35,31.5z"/><path fill="#5e9c76" d="M20,6c0.996,0,1.961,0.383,2.711,1.078l0.48,0.445l0.602-0.266C24.18,7.086,24.586,7,25,7 c1.07,0,2.066,0.59,2.602,1.543l0.324,0.574l0.652-0.07c0.066-0.008,0.133-0.016,0.195-0.023C28.848,9.012,28.922,9,29,9 c1.613,0,3.063,0.961,3.688,2.449l0.219,0.516l0.551,0.086c1.453,0.223,2.512,1.43,2.543,2.883l-0.004,0.004v0.074l-0.004,0.504 l0.402,0.301C37.414,16.59,38,17.746,38,19c0,0.422-0.082,0.855-0.246,1.324l-0.199,0.563l0.398,0.441 C38.629,22.074,39,23.023,39,24c0,0.895-0.309,1.754-0.891,2.48l-0.301,0.375l0.109,0.473C37.973,27.574,38,27.793,38,28 c0,1.652-1.348,3-3,3s-3-1.348-3-3c0-0.207,0.027-0.426,0.086-0.672l0.105-0.473l-0.301-0.375C31.309,25.754,31,24.895,31,24 c0-0.422,0.082-0.855,0.246-1.324l0.199-0.563l-0.398-0.441C30.371,20.926,30,19.977,30,19c0-0.273,0.027-0.543,0.082-0.809 l0.254-1.227l-1.254,0.023l-0.117,0.008L28.949,17c-1.91-0.023-3.535-1.398-3.875-3.289l-0.117-0.648l-0.641-0.148 c-0.191-0.047-0.367-0.105-0.523-0.172l-0.602-0.266l-0.48,0.445C21.961,13.617,20.996,14,20,14s-1.961-0.383-2.711-1.078 l-0.48-0.445l-0.602,0.266c-0.156,0.066-0.332,0.125-0.523,0.172l-0.641,0.148l-0.117,0.648c-0.34,1.891-1.965,3.266-3.879,3.289 l-0.066-0.008h-0.063l-1.25-0.027l0.25,1.227C9.973,18.457,10,18.727,10,19c0,0.977-0.371,1.926-1.047,2.672l-0.398,0.441 l0.199,0.563C8.918,23.145,9,23.578,9,24c0,0.895-0.309,1.754-0.891,2.48l-0.301,0.375l0.109,0.473C7.973,27.574,8,27.793,8,28 c0,1.652-1.348,3-3,3s-3-1.348-3-3c0-0.207,0.027-0.426,0.086-0.672l0.105-0.473L1.891,26.48C1.309,25.754,1,24.895,1,24 c0-0.977,0.371-1.926,1.047-2.672l0.398-0.441l-0.199-0.563C2.082,19.855,2,19.422,2,19c0-1.254,0.586-2.41,1.605-3.18l0.402-0.305 l-0.004-0.504L4,14.941c0.027-1.457,1.09-2.668,2.543-2.891l0.551-0.086l0.219-0.516C7.938,9.961,9.387,9,11,9 c0.078,0,0.152,0.012,0.227,0.023c0.063,0.008,0.129,0.016,0.195,0.023l0.652,0.07l0.324-0.574C12.934,7.59,13.93,7,15,7 c0.414,0,0.82,0.086,1.207,0.258l0.602,0.266l0.48-0.445C18.039,6.383,19.004,6,20,6 M20,5c-1.313,0-2.496,0.516-3.391,1.344 C16.117,6.125,15.574,6,15,6c-1.496,0-2.789,0.836-3.473,2.055C11.352,8.035,11.18,8,11,8c-2.074,0-3.852,1.262-4.609,3.063 C4.473,11.355,3,13,3,15c0,0.008,0.004,0.016,0.004,0.02C1.793,15.934,1,17.367,1,19c0,0.586,0.117,1.137,0.305,1.66 C0.504,21.547,0,22.711,0,24c0,1.18,0.426,2.25,1.109,3.105C1.043,27.395,1,27.691,1,28c0,2.211,1.789,4,4,4s4-1.789,4-4 c0-0.309-0.043-0.605-0.109-0.895C9.574,26.25,10,25.18,10,24c0-0.586-0.117-1.137-0.305-1.66C10.496,21.453,11,20.289,11,19 c0-0.348-0.035-0.684-0.102-1.012C10.934,17.988,10.965,18,11,18c2.457,0,4.492-1.777,4.91-4.113 c0.242-0.059,0.477-0.133,0.699-0.23C17.504,14.484,18.688,15,20,15s2.496-0.516,3.391-1.344c0.223,0.098,0.457,0.172,0.699,0.23 C24.508,16.223,26.543,18,29,18c0.035,0,0.066-0.012,0.102-0.012C29.035,18.316,29,18.652,29,19c0,1.289,0.504,2.453,1.305,3.34 C30.117,22.863,30,23.414,30,24c0,1.18,0.426,2.25,1.109,3.105C31.043,27.395,31,27.691,31,28c0,2.211,1.789,4,4,4s4-1.789,4-4 c0-0.309-0.043-0.605-0.109-0.895C39.574,26.25,40,25.18,40,24c0-1.289-0.504-2.453-1.305-3.34C38.883,20.137,39,19.586,39,19 c0-1.633-0.793-3.066-2.004-3.98C36.996,15.016,37,15.008,37,15c0-2-1.473-3.645-3.391-3.938C32.852,9.262,31.074,8,29,8 c-0.18,0-0.352,0.035-0.527,0.055C27.789,6.836,26.496,6,25,6c-0.574,0-1.117,0.125-1.609,0.344C22.496,5.516,21.313,5,20,5z"/><path fill="#c74343" d="M25,11c0,1.656-1.344,3-3,3s-3-1.344-3-3s1.344-3,3-3S25,9.344,25,11z"/><path fill="#ffeea3" d="M14,13.5c0,1.379-1.121,2.5-2.5,2.5S9,14.879,9,13.5s1.121-2.5,2.5-2.5S14,12.121,14,13.5z"/><path fill="#a16a4a" d="M20,11c0,1.105-0.895,2-2,2s-2-0.895-2-2s0.895-2,2-2S20,9.895,20,11z"/><path fill="#a16a4a" d="M33,15c0,1.105-0.895,2-2,2s-2-0.895-2-2s0.895-2,2-2S33,13.895,33,15z"/><path fill="#ffeea3" d="M35,17c0,1.105-0.895,2-2,2s-2-0.895-2-2s0.895-2,2-2S35,15.895,35,17z"/><path fill="#ffeea3" d="M7,23c0,1.105-0.895,2-2,2s-2-0.895-2-2s0.895-2,2-2S7,21.895,7,23z"/><path fill="#ffeea3" d="M8,19c0,1.105-0.895,2-2,2s-2-0.895-2-2s0.895-2,2-2S8,17.895,8,19z"/><path fill="#ffeea3" d="M28,12.5c0,1.379-1.121,2.5-2.5,2.5S23,13.879,23,12.5s1.121-2.5,2.5-2.5S28,11.121,28,12.5z"/><path fill="#c74343" d="M11,16.332C11,17.805,9.805,19,8.332,19s-2.668-1.195-2.668-2.668s1.195-2.668,2.668-2.668 S11,14.859,11,16.332z"/><path fill="#c74343" d="M36,19.5c0,0.828-0.672,1.5-1.5,1.5S33,20.328,33,19.5s0.672-1.5,1.5-1.5S36,18.672,36,19.5z"/><path fill="#f5ce85" d="M5,32.5c-0.828,0-1.5-0.672-1.5-1.5v-4c0-9.098,7.402-16.5,16.5-16.5S36.5,17.902,36.5,27v4 c0,0.828-0.672,1.5-1.5,1.5H5z"/><path fill="#967a44" d="M20,11c8.82,0,16,7.18,16,16v4c0,0.551-0.449,1-1,1H5c-0.551,0-1-0.449-1-1v-4 C4,18.18,11.18,11,20,11 M20,10c-9.391,0-17,7.609-17,17v4c0,1.105,0.895,2,2,2h30c1.105,0,2-0.895,2-2v-4 C37,17.609,29.391,10,20,10z"/><path fill="#967a44" d="M12,27c0,0.551-0.449,1-1,1s-1-0.449-1-1s0.449-1,1-1S12,26.449,12,27z"/><circle cx="29.5" cy="26.5" r="3.5" fill="#f78f8f"/><circle cx="10.5" cy="26.5" r="3.5" fill="#f78f8f"/><g><path fill="#36404d" d="M20,27c-2.465,0-3.863-2.14-3.921-2.23c-0.148-0.232-0.081-0.54,0.151-0.689 s0.541-0.083,0.691,0.149c0.011,0.018,1.169,1.854,3.08,1.854c1.913,0,3.068-1.836,3.079-1.854c0.149-0.23,0.458-0.3,0.691-0.149 c0.232,0.148,0.3,0.457,0.151,0.689C23.863,24.86,22.469,27,20,27z"/></g><path fill="#36404d" d="M15,18.999c0,1.104-0.895,1.999-1.999,1.999c-1.106,0-2.001-0.895-2.001-1.999S11.895,17,13.001,17C14.105,17,15,17.895,15,18.999z"/><path fill="#36404d" d="M29,19c0,1.104-0.896,2-2,2s-2-0.896-2-2s0.896-2,2-2S29,17.896,29,19z"/><path fill="#fff" d="M13.999,17.998c0,0.553-0.448,1.001-0.998,1.001c-0.553,0-1.001-0.448-1.001-1.001c0-0.551,0.448-0.998,1.001-0.998C13.552,17,13.999,17.448,13.999,17.998z"/><path fill="#fff" d="M28.001,17.999C28.001,18.552,27.553,19,27,19s-1.001-0.448-1.001-1.001C25.999,17.448,26.447,17,27,17S28.001,17.448,28.001,17.999z"/></svg>