<svg xmlns="http://www.w3.org/2000/svg" viewBox="0 0 100 100">
  <path d="M50.03125 16C47.05825 16 44.268125 16.971406 41.953125 18.816406C40.453125 20.072406 38.531016 20.765625 36.541016 20.765625C32.712016 20.765625 29.137422 22.435609 26.732422 25.349609C26.714422 25.371609 26.707359 25.399828 26.693359 25.423828C24.017359 26.252828 21.843859 28.233156 20.755859 30.785156C15.618859 32.393156 12.433594 36.638969 12.433594 41.917969L12.433594 42.105469C11.535594 43.343469 11 44.858 11 46.5C11 47.44 11.175859 48.355031 11.505859 49.207031C11.457859 49.269031 11.416375 49.328484 11.359375 49.396484C9.299375 52.042484 8.5651406 55.203594 9.2441406 58.558594C9.7041406 60.437594 10.713 62.324859 12 63.755859L12 70.199219C12 73.451219 14.655875 76 18.046875 76L81.953125 76C85.344125 76 88 73.451219 88 70.199219L88 63.775391C89.933 61.565391 91 58.912797 91 56.216797C91 54.045797 90.401422 52.02875 89.232422 50.21875C89.724422 49.05975 90 47.804 90 46.5C90 44.026 89.041328 41.775984 87.486328 40.083984C86.840328 35.797984 83.95975 32.427234 79.71875 30.990234C78.92075 28.127234 76.466078 25.953359 73.455078 25.568359C71.701078 23.260359 69.146234 21.657875 66.240234 21.046875C64.128234 18.575875 60.997 17 57.5 17C56.805 17 56.123031 17.0685 55.457031 17.1875C55.446031 17.1815 55.438734 17.171016 55.427734 17.166016C53.735734 16.393016 51.92125 16 50.03125 16 z M 50.03125 17C51.33825 17 52.606406 17.203469 53.816406 17.605469C50.629406 18.679469 48.024344 21.119375 46.777344 24.359375C45.536344 23.497375 44.05 23 42.5 23C39.58 23 36.950563 24.721125 35.726562 27.328125C34.015563 25.845125 31.808 25 29.5 25C29.108 25 28.724703 25.030172 28.345703 25.076172C30.510703 22.960172 33.434016 21.765625 36.541016 21.765625C38.766016 21.765625 40.915937 20.991797 42.585938 19.591797C44.712938 17.896797 47.28825 17 50.03125 17 z M 57.5 18C63.29 18 68 22.71 68 28.5C68 29.09 67.936844 29.672047 67.839844 30.248047C62.516844 27.540047 56.444 26 50 26C49.502 26 49.007672 26.017156 48.513672 26.035156C48.238672 25.665156 47.932656 25.327578 47.597656 25.017578C49.075656 20.813578 53.025 18 57.5 18 z M 67.193359 22.337891C69.111359 22.951891 70.814859 24.048344 72.130859 25.527344C70.955859 25.584344 69.8285 25.914188 68.8125 26.492188C68.5455 24.985187 67.987359 23.581891 67.193359 22.337891 z M 42.5 24C44.325 24 46.050531 24.787516 47.269531 26.103516C43.570531 26.354516 40.016594 27.108781 36.683594 28.300781C36.617594 28.224781 36.554328 28.144313 36.486328 28.070312C37.472328 25.630312 39.85 24 42.5 24 z M 29.5 26C31.853 26 34.083687 26.988734 35.679688 28.677734C30.325688 30.760734 25.575672 33.970906 21.763672 38.003906C21.267672 36.909906 21 35.722 21 34.5C21 29.813 24.813 26 29.5 26 z M 72.5 26.5C76.084 26.5 79 29.416 79 33C79 34.546 78.438266 36.037078 77.447266 37.205078C74.901266 34.669078 71.976859 32.485328 68.755859 30.736328C68.900859 30.001328 69 29.257 69 28.5C69 28.184 68.978125 27.874453 68.953125 27.564453C70.009125 26.874453 71.23 26.5 72.5 26.5 z M 50 28C69.851 28 86 43.341219 86 62.199219L86 70.199219C86 72.365219 84.260125 74 81.953125 74L18.046875 74C15.739875 74 14 72.365219 14 70.199219L14 62.199219C14 43.341219 30.149 28 50 28 z M 20.349609 31.978516C20.127609 32.782516 20 33.626 20 34.5C20 36.01 20.367969 37.471828 21.042969 38.798828C20.893969 38.966828 20.73975 39.130781 20.59375 39.300781C19.91675 39.103781 19.216 39 18.5 39C16.567 39 14.807563 39.740313 13.476562 40.945312C13.821562 36.813313 16.367609 33.488516 20.349609 31.978516 z M 50 32C49.724 32 49.5 32.224 49.5 32.5C49.5 32.776 49.724 33 50 33C50.496 33 50.987516 33.01025 51.478516 33.03125L51.5 33.03125C51.767 33.03125 51.988 32.821734 52 32.552734C52.012 32.277734 51.798484 32.04425 51.521484 32.03125C51.018484 32.01025 50.51 32 50 32 z M 79.949219 32.162109C83.091219 33.406109 85.347703 35.831594 86.220703 38.933594C84.626703 37.725594 82.649 37 80.5 37C79.897 37 79.304656 37.060875 78.722656 37.171875C79.542656 35.946875 80 34.496 80 33C80 32.716 79.980219 32.438109 79.949219 32.162109 z M 53.550781 32.183594C53.290781 32.155594 53.031906 32.353906 53.003906 32.628906C52.975906 32.902906 53.174219 33.149734 53.449219 33.177734C54.112219 33.245734 54.768969 33.333406 55.417969 33.441406C55.445969 33.446406 55.474953 33.447266 55.501953 33.447266C55.741953 33.447266 55.952187 33.273297 55.992188 33.029297C56.037188 32.756297 55.854031 32.498125 55.582031 32.453125C54.912031 32.342125 54.234781 32.253594 53.550781 32.183594 z M 57.412109 32.847656C57.220062 32.8815 57.058219 33.026766 57.011719 33.228516C56.949719 33.497516 57.118672 33.766125 57.388672 33.828125C67.646672 36.176125 75.851734 43.389344 78.802734 52.652344C78.871734 52.864344 79.067297 53 79.279297 53C79.329297 53 79.382641 52.991562 79.431641 52.976562C79.695641 52.892562 79.839859 52.612609 79.755859 52.349609C76.697859 42.748609 68.213328 35.278516 57.611328 32.853516C57.543578 32.837766 57.476125 32.836375 57.412109 32.847656 z M 80.5 38C82.875 38 85.022406 38.981641 86.566406 40.556641C86.613406 40.689641 86.707031 40.794609 86.832031 40.849609C88.175031 42.352609 89 44.33 89 46.5C89 48.748 88.127031 50.848734 86.582031 52.427734C85.014031 47.109734 82.203844 42.285859 78.464844 38.255859C79.126844 38.092859 79.806 38 80.5 38 z M 18.5 40C18.972 40 19.436625 40.053344 19.890625 40.152344C17.270625 43.392344 15.213422 47.063156 13.857422 51.035156C12.682422 49.832156 12 48.216 12 46.5C12 42.916 14.916 40 18.5 40 z M 40.5 44C38.019 44 36 46.019 36 48.5C36 50.981 38.019 53 40.5 53C42.981 53 45 50.981 45 48.5C45 47.42 44.602797 46.442016 43.966797 45.666016C43.985797 45.775016 44 45.885 44 46C44 47.105 43.105 48 42 48C40.895 48 40 47.105 40 46C40 45.099 40.600922 44.345703 41.419922 44.095703C41.122922 44.033703 40.815 44 40.5 44 z M 59.5 44C57.019 44 55 46.019 55 48.5C55 50.981 57.019 53 59.5 53C61.981 53 64 50.981 64 48.5C64 47.42 63.602797 46.442016 62.966797 45.666016C62.985797 45.775016 63 45.885 63 46C63 47.105 62.105 48 61 48C59.895 48 59 47.105 59 46C59 45.099 59.600922 44.345703 60.419922 44.095703C60.122922 44.033703 59.815 44 59.5 44 z M 11.998047 50.220703C12.398047 50.918703 12.904625 51.555609 13.515625 52.099609C12.539625 55.292609 12.006953 58.664344 12.001953 62.152344C11.182953 61.006344 10.546703 59.669797 10.220703 58.341797C9.6237031 55.380797 10.247047 52.575703 11.998047 50.220703 z M 88.691406 51.298828C89.542406 52.805828 90 54.450797 90 56.216797C90 58.297797 89.293047 60.356828 87.998047 62.173828C87.996047 59.189828 87.606719 56.290625 86.886719 53.515625C87.606719 52.861625 88.211406 52.116828 88.691406 51.298828 z M 46.5 55C46.224 55 46 55.224 46 55.5C46 57.991 47.784 61 50 61C52.216 61 54 57.991 54 55.5C54 55.224 53.776 55 53.5 55L46.5 55 z M 47.027344 56L52.972656 56C52.766656 57.882 51.457 60 50 60C48.543 60 47.233344 57.882 47.027344 56 z M 31 57C28.243 57 26 59.243 26 62C26 64.757 28.243 67 31 67C33.757 67 36 64.757 36 62C36 59.243 33.757 57 31 57 z M 69 57C66.243 57 64 59.243 64 62C64 64.757 66.243 67 69 67C71.757 67 74 64.757 74 62C74 59.243 71.757 57 69 57 z M 31 58C33.206 58 35 59.794 35 62C35 64.206 33.206 66 31 66C28.794 66 27 64.206 27 62C27 59.794 28.794 58 31 58 z M 69 58C71.206 58 73 59.794 73 62C73 64.206 71.206 66 69 66C66.794 66 65 64.206 65 62C65 59.794 66.794 58 69 58 z" fill="#64748B" />
</svg>