<svg xmlns="http://www.w3.org/2000/svg" xmlns:xlink="http://www.w3.org/1999/xlink" width="182" height="212" viewBox="0 0 182 212">
  <defs>
    <clipPath id="clip-Order_History_Empty">
      <rect width="182" height="212"/>
    </clipPath>
  </defs>
  <g id="Order_History_Empty" clip-path="url(#clip-Order_History_Empty)">
    <rect width="182" height="212" fill="rgba(255,255,255,0)"/>
    <g id="Artwork" transform="translate(0 1)">
      <g id="Group_1" data-name="Group 1">
        <rect id="Rectangle_1" data-name="Rectangle 1" width="124" height="12" transform="translate(25 179)" fill="#1b3554"/>
      </g>
      <rect id="Rectangle_2" data-name="Rectangle 2" width="124" height="79" transform="translate(26 15)" fill="#dbe0e7"/>
      <path id="Path_1" data-name="Path 1" d="M26,15V135H6V62.437l10-15.35Z" fill="#64748b" fill-rule="evenodd"/>
      <path id="Path_2" data-name="Path 2" d="M149,15V135h20V62.437l-10-15.35Z" fill="#64748b" fill-rule="evenodd"/>
      <path id="Path_3" data-name="Path 3" d="M6,62H169V198a5,5,0,0,1-5,5H11a5,5,0,0,1-5-5Z" fill="#dbe0e7"/>
      <path id="Path_4" data-name="Path 4" d="M55,117.548a1.857,1.857,0,0,1,.981-1.672,15.521,15.521,0,0,1,6.6-1.876,14.755,14.755,0,0,1,6.475,1.875A1.839,1.839,0,0,1,70,117.519a2.5,2.5,0,0,1-3.369,2.12,12.318,12.318,0,0,0-4.091-.793,12.619,12.619,0,0,0-4.19.819A2.484,2.484,0,0,1,55,117.548Z" fill="#64748b" fill-rule="evenodd" opacity="0.5"/>
      <path id="Path_5" data-name="Path 5" d="M106,117.548a1.857,1.857,0,0,1,.981-1.672,15.525,15.525,0,0,1,6.6-1.876,14.761,14.761,0,0,1,6.475,1.875,1.838,1.838,0,0,1,.947,1.644,2.5,2.5,0,0,1-3.369,2.12,12.319,12.319,0,0,0-4.091-.793,12.621,12.621,0,0,0-4.19.819A2.484,2.484,0,0,1,106,117.548Z" fill="#64748b" fill-rule="evenodd" opacity="0.5"/>
      <ellipse id="Ellipse_1" data-name="Ellipse 1" cx="16" cy="7.003" rx="16" ry="7.003" transform="translate(72 131)" fill="#64748b" opacity="0.5"/>
      <circle id="Ellipse_2" data-name="Ellipse 2" cx="6" cy="6" r="6" transform="translate(45 71)" fill="#1b3554" opacity="0.149"/>
      <circle id="Ellipse_3" data-name="Ellipse 3" cx="6" cy="6" r="6" transform="translate(118 71)" fill="#1b3554" opacity="0.149"/>
      <path id="Path_6" data-name="Path 6" d="M51,76.693V39.5a36.5,36.5,0,0,1,73,0V76.693" fill="none" stroke="#64748b" stroke-linecap="round" stroke-linejoin="round" stroke-width="5"/>
    </g>
  </g>
</svg>
