<svg xmlns="http://www.w3.org/2000/svg" viewBox="0 0 48 48"><path fill="#ffa000" d="M40,12H22l-4-4H8c-2.2,0-4,1.8-4,4v8h40v-4C44,13.8,42.2,12,40,12z"/><path fill="#ffca28" d="M40,12H8c-2.2,0-4,1.8-4,4v20c0,2.2,1.8,4,4,4h32c2.2,0,4-1.8,4-4V16C44,13.8,42.2,12,40,12z"/><path fill="#151515" d="M24,32.778c-2.396,0-3.761-1.9-3.818-1.981c-0.318-0.451-0.209-1.075,0.243-1.393 c0.451-0.32,1.075-0.211,1.393,0.242c0.029,0.04,0.84,1.132,2.182,1.132c1.348,0,2.174-1.121,2.182-1.132 c0.318-0.453,0.941-0.563,1.393-0.242c0.452,0.317,0.561,0.941,0.243,1.393C27.761,30.878,26.396,32.778,24,32.778z"/><path fill="#151515" d="M17,22c-1.105,0-2,0.895-2,2s0.895,2,2,2s2-0.895,2-2S18.105,22,17,22z M31,22c-1.105,0-2,0.895-2,2 s0.895,2,2,2c1.105,0,2-0.895,2-2S32.105,22,31,22z"/><path fill="#fff" d="M17,22c-0.552,0-1,0.448-1,1s0.448,1,1,1s1-0.448,1-1S17.552,22,17,22z M31,22c-0.552,0-1,0.448-1,1 s0.448,1,1,1s1-0.448,1-1S31.552,22,31,22z"/><circle cx="11.5" cy="30.5" r="3.5" fill="#ff9592"/><g><circle cx="36.5" cy="30.5" r="3.5" fill="#ff9592"/></g></svg>