<svg xmlns="http://www.w3.org/2000/svg" xmlns:xlink="http://www.w3.org/1999/xlink" width="228" height="138" viewBox="0 0 228 138">
  <defs>
    <clipPath id="clip-Empty_State">
      <rect width="228" height="138"/>
    </clipPath>
  </defs>
  <g id="Empty_State" data-name="Empty State" clip-path="url(#clip-Empty_State)">
    <rect width="228" height="138" fill="rgba(255,255,255,0)"/>
    <path id="Path_1" data-name="Path 1" d="M62.624,133.428h90.257a7,7,0,0,0,1.488-.16,7,7,0,0,0,1.488.16h51.575a6.943,6.943,0,0,0,0-13.886h-5.951a6.943,6.943,0,1,1,0-13.886h18.845a6.943,6.943,0,1,0,0-13.886h-21.82a6.943,6.943,0,1,0,0-13.886H135.028a6.943,6.943,0,0,0,0-13.886H78.494a6.943,6.943,0,0,0,0,13.886H38.82a6.943,6.943,0,0,0,0,13.886h24.8a6.943,6.943,0,0,1,0,13.886H23.943a6.943,6.943,0,1,0,0,13.886H62.624a6.943,6.943,0,1,0,0,13.886Zm161.669,0a6.943,6.943,0,1,0-6.943-6.943A6.943,6.943,0,0,0,224.293,133.428Z" transform="translate(-10.118 -29.17)" fill="#f3f4f6" fill-rule="evenodd"/>
    <path id="Path_3" data-name="Path 3" d="M98,43.268l11.009,12.352m40.665-12.352L138.665,55.619ZM123.788,39v0Z" transform="translate(-10.78 -28.966)" fill="none" stroke="#9ca3af" stroke-linecap="round" stroke-linejoin="round" stroke-width="2.5"/>
    <path id="Path_4" data-name="Path 4" d="M92.782,71h62.1l-5.56,8.341,7.414,5.561h-65.8l8.341-5.561Z" transform="translate(-10.722 -29.227)" fill="#f3f4f6" fill-rule="evenodd"/>
    <rect id="Rectangle_2" data-name="Rectangle 2" width="71" height="74" rx="2" transform="translate(78.979 53.72)" fill="#fff"/>
    <path id="Path_5" data-name="Path 5" d="M93.585,123.7V89.624a2.556,2.556,0,0,1,2.57-2.542l60.478,63.559a3.369,3.369,0,0,1-3.347,3.39H96.933a3.369,3.369,0,0,1-3.347-3.39V123.7Zm0,7.358v0Z" transform="translate(-10.743 -29.358)" fill="#f3f4f6" fill-rule="evenodd"/>
    <path id="Path_6" data-name="Path 6" d="M90,124.133V86.862a2.8,2.8,0,0,1,2.815-2.78h64.393a1.843,1.843,0,0,1,1.833,1.854v67.656a3.687,3.687,0,0,1-3.666,3.707H93.665A3.687,3.687,0,0,1,90,153.592V135.983m0-3.8v-4.174" transform="translate(-10.714 -29.334)" fill="none" stroke="#9ca3af" stroke-linecap="round" stroke-width="2.5"/>
    <path id="Path_7" data-name="Path 7" d="M91.863,83.975V72.854A1.766,1.766,0,0,1,93.527,71h61.549a1.766,1.766,0,0,1,1.663,1.854V83.975" transform="translate(-10.729 -29.227)" fill="none" stroke="#9ca3af" stroke-width="2.5"/>
    <path id="Path_8" data-name="Path 8" d="M109.123,103.652a3.244,3.244,0,1,0-3.243-3.244A3.243,3.243,0,0,0,109.123,103.652Z" transform="translate(-10.844 -29.44)" fill="#e8f0fe" stroke="#9ca3af" stroke-linecap="round" stroke-width="2.5"/>
    <path id="Path_9" data-name="Path 9" d="M139.959,103.652a3.244,3.244,0,1,0-3.243-3.244A3.244,3.244,0,0,0,139.959,103.652Z" transform="translate(-11.096 -29.44)" fill="#e8f0fe" stroke="#9ca3af" stroke-linecap="round" stroke-width="2.5"/>
    <path id="Path_10" data-name="Path 10" d="M139.275,103.705a14.829,14.829,0,0,1-29.658,0" transform="translate(-10.874 -29.494)" fill="none" stroke="#9ca3af" stroke-linecap="round" stroke-width="2.5"/>
    <path id="Path_11" data-name="Path 11" d="M92.847,71.932l6.525,6.441a.992.992,0,0,1-.216,1.574l-7.292,4.037" transform="translate(-10.729 -29.234)" fill="none" stroke="#9ca3af" stroke-linecap="round" stroke-width="2.5"/>
    <path id="Path_12" data-name="Path 12" d="M156.386,72l-6.244,6.368a.992.992,0,0,0,.233,1.565l7.426,4.051" transform="translate(-11.203 -29.235)" fill="none" stroke="#9ca3af" stroke-linecap="round" stroke-width="2.5"/>
  </g>
</svg>
