<svg xmlns="http://www.w3.org/2000/svg" xmlns:xlink="http://www.w3.org/1999/xlink" width="750" height="423" viewBox="0 0 750 423">
  <defs>
    <clipPath id="clip-Not_Found">
      <rect width="750" height="423"/>
    </clipPath>
  </defs>
  <g id="Not_Found" clip-path="url(#clip-Not_Found)">
    <rect width="750" height="423" fill="rgba(255,255,255,0.01)"/>
    <g id="Background_Simple" data-name="Background Simple" transform="translate(-11 -29)">
      <g id="Group_1" data-name="Group 1">
        <path id="Path_1" data-name="Path 1" d="M704.185,191.6c-7.88-28.378-60.413,2.488-60.413,2.488l13.747-24.937a55.108,55.108,0,0,0,4.354-7.9c6.9-15.438,6.813-31.954-.036-46.337-1.883-8.732-7.586-21.212-23.318-34.889C608.75,54.152,508.938,36.45,480.045,40.381s26.266,16.087,26.266,16.087l-4.371-.038C417.787,47.507,333.116,46.36,249.107,48.1c-21.066.436-42.2,1.127-62.823,4.686-5.935,1.024-12.317,2.588-15.849,7.375C154.752,81.426,218.9,83.5,228.967,83.094c-44.063,5.727-93.023,7.483-134,24.512-5.718,2.377-11.382,5.192-15.69,9.589s-7.115,10.633-6.144,16.9c2.819,18.2,27.889,23.591,42.105,27.632,0,0-81.72,54.339-72.088,81.922a96.686,96.686,0,0,0,20.911,35.221,136.248,136.248,0,0,0-16.053,24.855c-2.609,5.34-6.028,12.656-3.107,18.8C59.783,353.855,285.511,461.385,466.393,430.7c48.051-8.153,95.908-21.635,138.031-45.479,41.918-23.729,84.635-62.924,95.2-112.348.348-1.629.6-3.208.777-4.744C706.95,245.345,710.777,215.344,704.185,191.6Z" fill="#92e3a9"/>
        <path id="Path_2" data-name="Path 2" d="M704.185,191.6c-7.88-28.378-60.413,2.488-60.413,2.488l13.747-24.937a55.108,55.108,0,0,0,4.354-7.9c6.9-15.438,6.813-31.954-.036-46.337-1.883-8.732-7.586-21.212-23.318-34.889C608.75,54.152,508.938,36.45,480.045,40.381s26.266,16.087,26.266,16.087l-4.371-.038C417.787,47.507,333.116,46.36,249.107,48.1c-21.066.436-42.2,1.127-62.823,4.686-5.935,1.024-12.317,2.588-15.849,7.375C154.752,81.426,218.9,83.5,228.967,83.094c-44.063,5.727-93.023,7.483-134,24.512-5.718,2.377-11.382,5.192-15.69,9.589s-6,10.56-6.144,16.9c-.4,16.776,26.564,23.005,42.105,27.632,0,0-81.72,54.339-72.088,81.922a96.686,96.686,0,0,0,20.911,35.221,136.248,136.248,0,0,0-16.053,24.855c-2.609,5.34-6.028,12.656-3.107,18.8C59.783,353.855,285.511,461.385,466.393,430.7c48.051-8.153,95.908-21.635,138.031-45.479,41.918-23.729,84.635-62.924,95.2-112.348.348-1.629.6-3.208.777-4.744C706.95,245.345,710.777,215.344,704.185,191.6Z" fill="#fff" opacity="0.8"/>
      </g>
    </g>
    <g id="Birds" transform="translate(-11 -29)">
      <g id="Group_2" data-name="Group 2">
        <path id="Path_3" data-name="Path 3" d="M557.959,160.6s1.021-3.061,6.123-4.082,11.224,4.592,11.224,4.592,4.082-8.163,8.164-8.674,8.673,3.062,8.673,3.062" fill="none" stroke="#263238" stroke-miterlimit="10" stroke-width="1"/>
        <path id="Path_4" data-name="Path 4" d="M544.694,179.983s1.02-3.061,6.122-4.082,11.225,4.592,11.225,4.592,4.082-8.163,8.163-8.674,8.674,3.062,8.674,3.062" fill="none" stroke="#263238" stroke-miterlimit="10" stroke-width="1"/>
        <path id="Path_5" data-name="Path 5" d="M593.164,180.1s.776-2.33,4.66-3.107,8.544,3.495,8.544,3.495,3.107-6.214,6.214-6.6,6.6,2.33,6.6,2.33" fill="none" stroke="#263238" stroke-miterlimit="10" stroke-width="1"/>
        <path id="Path_6" data-name="Path 6" d="M649.858,200.647s.509-1.528,3.056-2.038,5.6,2.292,5.6,2.292,2.038-4.075,4.075-4.329,4.33,1.528,4.33,1.528" fill="none" stroke="#263238" stroke-miterlimit="10" stroke-width="1"/>
      </g>
    </g>
    <g id="Clouds" transform="translate(-11 -29)">
      <path id="Path_7" data-name="Path 7" d="M378.139,155.188c-5.272-23.687-32.575-41.341-56.375-37.958a29.794,29.794,0,0,0-16.158,7.162c-6.077,5.591-4.635,11.938-7.644,18.865a6.47,6.47,0,0,1-4.533,3.987c-5.918,1.014-10.687-4.885-16.68-4.929-4.481-.033-10.209,2.442-12.708,6.312-2.328,3.6-.706,9.89-4.894,12.283-4.685,2.675-10.382-2.414-15.446-.573-6.293,2.289-3.433,6.865-5.721,9.726s-6.865,1.716-13.158,1.144-11.441,6.865-11.441,6.865h198.51s1.717-2.861-5.72-14.3-17.735-3.433-22.311-3.433S378.141,155.2,378.139,155.188Z" fill="none" stroke="#263238" stroke-miterlimit="10" stroke-width="1"/>
      <path id="Path_8" data-name="Path 8" d="M433.423,117.144c-2.115-9.5-13.069-16.585-22.616-15.228a11.958,11.958,0,0,0-6.483,2.873c-2.438,2.244-1.86,4.79-3.067,7.569a2.592,2.592,0,0,1-1.818,1.6c-2.375.407-4.288-1.96-6.692-1.977a6.484,6.484,0,0,0-5.1,2.532c-.933,1.446-.283,3.968-1.963,4.928-1.879,1.073-4.165-.969-6.2-.23-2.524.918-1.377,2.755-2.3,3.9s-2.754.689-5.279.459-4.59,2.754-4.59,2.754h79.64s.689-1.147-2.295-5.738-7.115-1.377-8.951-1.377S433.424,117.148,433.423,117.144Z" fill="none" stroke="#263238" stroke-miterlimit="10" stroke-width="1"/>
      <path id="Path_9" data-name="Path 9" d="M603.325,233.6c-2.115-9.5-13.068-16.585-22.616-15.228a11.951,11.951,0,0,0-6.483,2.873c-2.438,2.243-1.86,4.79-3.067,7.569a2.594,2.594,0,0,1-1.818,1.6c-2.375.407-4.288-1.96-6.692-1.977a6.484,6.484,0,0,0-5.1,2.532c-.933,1.445-.283,3.968-1.963,4.928-1.879,1.073-4.165-.969-6.2-.23-2.524.918-1.377,2.754-2.3,3.9s-2.754.688-5.279.459-4.59,2.754-4.59,2.754h79.64s.689-1.147-2.3-5.738-7.114-1.377-8.951-1.377S603.326,233.6,603.325,233.6Z" fill="none" stroke="#263238" stroke-miterlimit="10" stroke-width="1"/>
      <path id="Path_10" data-name="Path 10" d="M475.579,223.2c-3.24-14.555-20.017-25.4-34.642-23.325a18.3,18.3,0,0,0-9.929,4.4c-3.734,3.435-2.848,7.335-4.7,11.592a3.977,3.977,0,0,1-2.785,2.45c-3.637.623-6.568-3-10.25-3.029-2.754-.02-6.274,1.5-7.81,3.879-1.43,2.214-.433,6.077-3.007,7.547-2.878,1.644-6.379-1.483-9.491-.351-3.867,1.406-2.109,4.218-3.515,5.976s-4.219,1.054-8.086.7-7.03,4.218-7.03,4.218H496.319s1.055-1.757-3.515-8.788-10.9-2.109-13.71-2.109S475.58,223.208,475.579,223.2Z" fill="none" stroke="#263238" stroke-miterlimit="10" stroke-width="1"/>
    </g>
    <g id="Mountains" transform="translate(-11 -29)">
      <path id="Path_11" data-name="Path 11" d="M504.269,390.9s-7.291-7.555-5.245-7.327,5.877,5.876,5.877,5.876.053-12.453,1.872-9.724-.416,9.776-.416,9.776,5.2-8.112,5.189-6.787c-.036,4.1-4.007,7.305-4.007,7.305s8.327-6.168,6.963-3.667-6.689,4.866-6.689,4.866,9.6-1.937,6.189-.573-6.657,2.3-6.657,2.3h-2.652s-9.065-4.548-5.654-3.866A16.921,16.921,0,0,1,504.269,390.9Z" fill="#263238"/>
      <path id="Path_12" data-name="Path 12" d="M600.558,367.261s-5.675-5.879-4.082-5.7,4.573,4.574,4.573,4.574.042-9.692,1.457-7.568-.323,7.608-.323,7.608,4.047-6.313,4.038-5.282c-.028,3.19-3.119,5.686-3.119,5.686s6.481-4.8,5.419-2.855-5.205,3.787-5.205,3.787,7.47-1.507,4.816-.445-5.181,1.79-5.181,1.79h-2.064s-7.054-3.539-4.4-3.008A13.175,13.175,0,0,1,600.558,367.261Z" fill="#263238"/>
      <path id="Path_13" data-name="Path 13" d="M689.953,346.171s-5.674-5.879-4.081-5.7,4.573,4.573,4.573,4.573.041-9.691,1.457-7.568-.324,7.609-.324,7.609,4.047-6.314,4.038-5.283c-.028,3.191-3.118,5.686-3.118,5.686s6.481-4.8,5.419-2.854-5.206,3.786-5.206,3.786,7.471-1.507,4.816-.445-5.18,1.791-5.18,1.791h-2.064s-7.054-3.539-4.4-3.008A13.178,13.178,0,0,1,689.953,346.171Z" fill="#263238"/>
      <path id="Path_14" data-name="Path 14" d="M576.022,394.342s-6.778-7.023-4.876-6.811,5.463,5.463,5.463,5.463.05-11.578,1.741-9.041-.387,9.089-.387,9.089,4.834-7.542,4.824-6.31c-.034,3.811-3.725,6.791-3.725,6.791s7.741-5.734,6.473-3.409-6.218,4.523-6.218,4.523,8.923-1.8,5.753-.532-6.189,2.14-6.189,2.14h-2.465s-8.427-4.228-5.256-3.594A15.73,15.73,0,0,1,576.022,394.342Z" fill="#92e3a9"/>
      <g id="Group_3" data-name="Group 3">
        <path id="Path_15" data-name="Path 15" d="M441.893,363.875l-59.967-67.231-13.133,10.507L303.051,208.17l-57.232,12.752-17.113-31.97-16.635-.876-31.52-62.164L133.4,168.929l-22.731-8.118L27.866,245.242" fill="none" stroke="#263238" stroke-miterlimit="10" stroke-width="1"/>
        <line id="Line_1" data-name="Line 1" x1="6.287" y1="7.049" transform="translate(446.851 369.433)" fill="none" stroke="#263238" stroke-miterlimit="10" stroke-width="1"/>
        <line id="Line_2" data-name="Line 2" x1="4.957" y2="1.342" transform="translate(210.131 229.142)" fill="none" stroke="#263238" stroke-miterlimit="10" stroke-width="1"/>
        <line id="Line_3" data-name="Line 3" x1="25.033" y2="6.78" transform="translate(220.669 220.85)" fill="none" stroke="#263238" stroke-miterlimit="10" stroke-width="1"/>
        <path id="Path_16" data-name="Path 16" d="M151.263,192.074l14.017-20.692-.946-7.1,16.089-32.652" fill="none" stroke="#263238" stroke-miterlimit="10" stroke-width="1"/>
        <line id="Line_4" data-name="Line 4" y1="5.191" x2="3.516" transform="translate(145.405 195.53)" fill="none" stroke="#263238" stroke-miterlimit="10" stroke-width="1"/>
        <line id="Line_5" data-name="Line 5" x1="22.731" y2="30.822" transform="translate(100.923 212.962)" fill="none" stroke="#263238" stroke-miterlimit="10" stroke-width="1"/>
        <path id="Path_17" data-name="Path 17" d="M111.806,164.284l5.679,12.777,12.777,10.411-1.42,18.455-3.1,4.2" fill="none" stroke="#263238" stroke-miterlimit="10" stroke-width="1"/>
        <path id="Path_18" data-name="Path 18" d="M228.705,188.952l-11.845,11.3-4.259-7.1" fill="none" stroke="#263238" stroke-miterlimit="10" stroke-width="1"/>
        <path id="Path_19" data-name="Path 19" d="M707.008,315.436l-92.016-64.9-27.933,39.436-34.506-11.5-53.4,74.763-34.506-7.394L447.39,360.623" fill="none" stroke="#263238" stroke-miterlimit="10" stroke-width="1"/>
        <path id="Path_20" data-name="Path 20" d="M614.992,250.532l-10.94,48.092-12.9-5.645" fill="none" stroke="#263238" stroke-miterlimit="10" stroke-width="1"/>
        <path id="Path_21" data-name="Path 21" d="M552.847,281.287l-27.014,78.621-18.547-3.225" fill="none" stroke="#263238" stroke-miterlimit="10" stroke-width="1"/>
      </g>
    </g>
    <g id="Trees_2" data-name="Trees 2" transform="translate(-11 -29)">
      <g id="Group_4" data-name="Group 4">
        <path id="Path_22" data-name="Path 22" d="M551.6,275.67a43.21,43.21,0,0,0-43.357,43.062,42.734,42.734,0,0,0,11.038,28.7,33.119,33.119,0,0,1,15.186,1.383,41.626,41.626,0,0,1,14.748,8.614H553.1a41.628,41.628,0,0,1,14.747-8.614,33.1,33.1,0,0,1,15.962-1.261,42.733,42.733,0,0,0,11.147-28.823A43.21,43.21,0,0,0,551.6,275.67Z" fill="#02aa14"/>
        <path id="Path_23" data-name="Path 23" d="M571.782,336q-2,.967-3.961,2.008a39.081,39.081,0,0,0-3.788,2.338c-.453.314-.9.638-1.339.963l7.1-13.231-9.746,15.261q-1.48,1.193-2.909,2.432c-1.574,1.37-3.1,2.766-4.6,4.205l-.495-14.354,10.2-15.525-10.271,13.353-.443-12.847-.733,14.375,0,0h0l-.734,14.408c-1.3-1.233-2.626-2.437-3.986-3.62q-1.6-1.393-3.271-2.727L533.579,327.3l6.772,13.89c-.388-.282-.775-.568-1.172-.842a38.956,38.956,0,0,0-3.788-2.338q-1.956-1.044-3.96-2.008a81.936,81.936,0,0,0-8.2-3.471,80.437,80.437,0,0,1,7.906,3.944q1.915,1.08,3.779,2.226a37.288,37.288,0,0,1,3.512,2.493,76.421,76.421,0,0,1,6.364,5.724c1.766,1.752,3.483,3.565,5.12,5.4l-.932,18.286h4.272l-.6-17.544c1.83-2.1,3.778-4.159,5.781-6.147a76.414,76.414,0,0,1,6.365-5.724A37.139,37.139,0,0,1,568.3,338.7q1.862-1.149,3.779-2.226a80.569,80.569,0,0,1,7.907-3.944A81.834,81.834,0,0,0,571.782,336Z" fill="#263238"/>
      </g>
      <g id="Group_5" data-name="Group 5">
        <path id="Path_24" data-name="Path 24" d="M218.708,334.757c0,12.373-6.938,13.308-15.5,13.308s-15.5-.935-15.5-13.308,6.938-38.236,15.5-38.236S218.708,322.385,218.708,334.757Z" fill="#02aa14"/>
        <path id="Path_25" data-name="Path 25" d="M208.451,340.371l-2.563.177,6.676-4.5-4.768,2.41.655-1.883-2.18,2.654-2.557,1.293-.2-8.885,1.354-3.288-1.387,1.849-.118-5.152,4.247-5.662-4.276,4.378-.259-11.339-.229,7.257-2.724-3.039,2.68,4.433-.363,11.5-2.372-1.551-2.161-3.83.866,2.984-4.241-2.773,7.857,6.777-1.19,37.731h3.235l-.684-29.916.747-.5Z" fill="#263238"/>
      </g>
      <g id="Group_6" data-name="Group 6">
        <path id="Path_26" data-name="Path 26" d="M635.517,292.148c0,24.176-13.557,26-30.281,26s-30.28-1.826-30.28-26,13.557-74.714,30.28-74.714S635.517,267.972,635.517,292.148Z" fill="#92e3a9"/>
        <path id="Path_27" data-name="Path 27" d="M635.517,292.148c0,24.176-13.557,26-30.281,26s-30.28-1.826-30.28-26,13.557-74.714,30.28-74.714S635.517,267.972,635.517,292.148Z" fill="#cceed0" opacity="0.31"/>
        <path id="Path_28" data-name="Path 28" d="M615.475,303.117l-5.009.345,13.046-8.795-9.317,4.71,1.28-3.679-4.26,5.186-5,2.526-.4-17.361,2.646-6.425-2.71,3.613-.23-10.066,8.3-11.064-8.355,8.554-.506-22.156-.447,14.181-5.323-5.937,5.237,8.662-.708,22.462-4.635-3.03-4.222-7.485,1.693,5.831-8.288-5.419,15.353,13.242L601.3,364.737h6.321l-1.336-58.455,1.46-.984Z" fill="#263238"/>
      </g>
      <g id="Group_7" data-name="Group 7">
        <path id="Path_29" data-name="Path 29" d="M700.336,301.663c0,12.373-6.938,13.307-15.5,13.307s-15.5-.934-15.5-13.307,6.938-38.236,15.5-38.236S700.336,289.29,700.336,301.663Z" fill="#92e3a9"/>
        <path id="Path_30" data-name="Path 30" d="M700.336,301.663c0,12.373-6.938,13.307-15.5,13.307s-15.5-.934-15.5-13.307,6.938-38.236,15.5-38.236S700.336,289.29,700.336,301.663Z" fill="#cceed0" opacity="0.5"/>
        <path id="Path_31" data-name="Path 31" d="M690.079,307.277l-2.563.177,6.676-4.5-4.768,2.41.655-1.883-2.18,2.654-2.557,1.292-.2-8.885,1.354-3.288-1.387,1.849-.118-5.152,4.247-5.662-4.276,4.378-.259-11.339-.229,7.257-2.724-3.039,2.68,4.433-.362,11.5-2.372-1.551-2.161-3.831.866,2.984-4.241-2.773,7.857,6.777-1.19,37.731h3.235l-.684-29.916.747-.5Z" fill="#263238"/>
      </g>
      <g id="Group_8" data-name="Group 8">
        <path id="Path_32" data-name="Path 32" d="M68.666,291.2c0,12.373-6.938,13.307-15.5,13.307s-15.5-.934-15.5-13.307,6.938-38.236,15.5-38.236S68.666,278.828,68.666,291.2Z" fill="#92e3a9"/>
        <path id="Path_33" data-name="Path 33" d="M68.666,291.2c0,12.373-6.938,13.307-15.5,13.307s-15.5-.934-15.5-13.307,6.938-38.236,15.5-38.236S68.666,278.828,68.666,291.2Z" fill="#98e5ae" opacity="0.5"/>
        <path id="Path_34" data-name="Path 34" d="M58.409,296.815l-2.563.177,6.676-4.5-4.768,2.41.655-1.883-2.18,2.654-2.557,1.292-.2-8.885,1.354-3.288-1.387,1.849-.118-5.152,4.247-5.662L53.289,280.2l-.259-11.339-.229,7.257-2.724-3.039,2.68,4.433-.362,11.5-2.372-1.551-2.161-3.831.866,2.984-4.241-2.773,7.857,6.777-1.19,37.731h3.235l-.683-29.916.747-.5Z" fill="#263238"/>
      </g>
      <g id="Group_9" data-name="Group 9">
        <path id="Path_35" data-name="Path 35" d="M145.459,263.142A43.211,43.211,0,0,0,102.1,306.2a42.731,42.731,0,0,0,11.038,28.7,33.127,33.127,0,0,1,15.187,1.384,41.629,41.629,0,0,1,14.747,8.614h3.886a41.637,41.637,0,0,1,14.748-8.614,33.069,33.069,0,0,1,15.962-1.261A42.739,42.739,0,0,0,188.817,306.2,43.211,43.211,0,0,0,145.459,263.142Z" fill="#92e3a9"/>
        <path id="Path_36" data-name="Path 36" d="M145.459,263.142A43.211,43.211,0,0,0,102.1,306.2a42.731,42.731,0,0,0,11.038,28.7,33.127,33.127,0,0,1,15.187,1.384,41.629,41.629,0,0,1,14.747,8.614h3.886a41.637,41.637,0,0,1,14.748-8.614,33.069,33.069,0,0,1,15.962-1.261A42.739,42.739,0,0,0,188.817,306.2,43.211,43.211,0,0,0,145.459,263.142Z" fill="#a4e7b6" opacity="0.33"/>
        <path id="Path_37" data-name="Path 37" d="M165.642,323.477q-2,.968-3.961,2.008a38.747,38.747,0,0,0-3.787,2.338c-.454.313-.9.638-1.34.962l7.1-13.23-9.746,15.261q-1.48,1.191-2.909,2.432c-1.574,1.369-3.1,2.765-4.6,4.205l-.5-14.354,10.2-15.525-10.271,13.353-.443-12.847-.732,14.375,0,0h0l-.734,14.408c-1.3-1.232-2.626-2.437-3.985-3.619q-1.6-1.393-3.272-2.727l-9.22-15.746,6.772,13.89c-.389-.283-.776-.568-1.173-.842a38.868,38.868,0,0,0-3.787-2.338q-1.958-1.044-3.961-2.008a81.834,81.834,0,0,0-8.2-3.471,80.417,80.417,0,0,1,7.906,3.943q1.916,1.08,3.779,2.227a37.33,37.33,0,0,1,3.512,2.492,76.768,76.768,0,0,1,6.365,5.724c1.765,1.753,3.482,3.566,5.119,5.4l-.932,18.287h4.273L146.5,340.54c1.831-2.1,3.778-4.159,5.781-6.148a76.606,76.606,0,0,1,6.365-5.724,37.316,37.316,0,0,1,3.511-2.492q1.861-1.15,3.779-2.227a80.546,80.546,0,0,1,7.907-3.943A81.836,81.836,0,0,0,165.642,323.477Z" fill="#263238"/>
      </g>
    </g>
    <g id="Text" transform="translate(-11 -29)">
      <g id="Group_10" data-name="Group 10">
        <path id="Path_38" data-name="Path 38" d="M265.837,391.648V351.972H214.2v-25.4L258.49,221.607h37.786V327.2h16.375v24.772H296.276v39.676ZM239.806,327.2h26.031V254.986Z" fill="#263238"/>
        <path id="Path_39" data-name="Path 39" d="M373.53,391.739q-15.327,0-25.4-6.3a39.148,39.148,0,0,1-15.114-17.32q-5.039-11.021-5.038-25.506v-76.2q0-14.9,4.828-26.136a37.691,37.691,0,0,1,14.905-17.529q10.075-6.3,25.821-6.3,15.533,0,25.506,6.3a37.917,37.917,0,0,1,14.8,17.529q4.827,11.232,4.828,26.136v76.2q0,14.486-5.038,25.506a39.144,39.144,0,0,1-15.115,17.32Q388.434,391.74,373.53,391.739Zm0-28.55q5.668,0,8.187-3.57a20.487,20.487,0,0,0,3.359-8.5,54.818,54.818,0,0,0,.839-9.132V267.042a67.106,67.106,0,0,0-.734-9.657,20.4,20.4,0,0,0-3.254-8.712q-2.52-3.671-8.4-3.674t-8.5,3.674a19.555,19.555,0,0,0-3.359,8.712,66.686,66.686,0,0,0-.735,9.657v74.943a54.511,54.511,0,0,0,.84,9.132,18.94,18.94,0,0,0,3.569,8.5Q368.069,363.192,373.53,363.189Z" fill="#263238"/>
        <path id="Path_40" data-name="Path 40" d="M487.939,391.648V351.972H436.3v-25.4l44.294-104.963h37.786V327.2h16.375v24.772H518.378v39.676ZM461.908,327.2h26.031V254.986Z" fill="#263238"/>
      </g>
    </g>
    <g id="Floor" transform="translate(-11 -29)">
      <g id="Group_11" data-name="Group 11">
        <path id="Path_41" data-name="Path 41" d="M720.109,309.639c-65.377,42.858-194.495,72.028-343.1,72.028-153.162,0-285.63-30.986-348.938-76.009V478H720.109Z" fill="rgba(255,255,255,0)"/>
        <path id="Path_42" data-name="Path 42" d="M705.907,318.188c-68.821,38.142-190.4,63.479-328.9,63.479-153.162,0-285.63-30.986-348.938-76.009" fill="none" stroke="#263238" stroke-miterlimit="10" stroke-width="1"/>
        <path id="Path_43" data-name="Path 43" d="M720.412,309.444q-4.42,2.908-9.228,5.733" fill="none" stroke="#263238" stroke-miterlimit="10" stroke-width="1"/>
      </g>
    </g>
    <g id="Trees_1" data-name="Trees 1" transform="translate(-11 -29)">
      <g id="Group_13" data-name="Group 13">
        <g id="Group_12" data-name="Group 12">
          <path id="Path_44" data-name="Path 44" d="M678.37,299.652c0,25.281-14.177,27.19-31.664,27.19s-31.663-1.909-31.663-27.19,14.176-78.126,31.663-78.126S678.37,274.372,678.37,299.652Z" fill="#02aa14"/>
          <path id="Path_45" data-name="Path 45" d="M657.412,311.123l-5.237.361,13.642-9.2-9.743,4.925,1.338-3.847-4.454,5.423-5.224,2.641-.415-18.154,2.766-6.718-2.834,3.778-.24-10.526,8.677-11.57-8.737,8.945-.529-23.168-.468,14.829-5.566-6.209,5.477,9.057-.741,23.488-4.846-3.169-4.415-7.827,1.77,6.1-8.666-5.666,16.054,13.846-2.431,77.094h6.61l-1.4-61.125,1.527-1.029Z" fill="#263238"/>
        </g>
        <path id="Path_46" data-name="Path 46" d="M644.573,376.237s-11.687-12.108-8.407-11.744,9.419,9.419,9.419,9.419.085-19.961,3-15.587-.667,15.67-.667,15.67,8.335-13,8.317-10.879c-.058,6.571-6.422,11.71-6.422,11.71s13.347-9.887,11.16-5.878-10.721,7.8-10.721,7.8,15.386-3.1,9.919-.917-10.669,3.688-10.669,3.688h-4.251s-14.529-7.289-9.062-6.2A27.134,27.134,0,0,1,644.573,376.237Z" fill="#263238"/>
      </g>
      <g id="Group_15" data-name="Group 15">
        <path id="Path_47" data-name="Path 47" d="M84.725,361.2s-10.108-10.473-7.271-10.158,8.147,8.147,8.147,8.147.073-17.265,2.6-13.482-.577,13.554-.577,13.554,7.21-11.247,7.194-9.41c-.05,5.683-5.555,10.128-5.555,10.128s11.544-8.552,9.653-5.084-9.273,6.745-9.273,6.745,13.308-2.685,8.579-.793-9.228,3.19-9.228,3.19H85.312s-12.566-6.305-7.838-5.359A23.474,23.474,0,0,1,84.725,361.2Z" fill="#263238"/>
        <g id="Group_14" data-name="Group 14">
          <path id="Path_48" data-name="Path 48" d="M121.261,285.871c0,25.308-14.192,27.219-31.7,27.219s-31.7-1.911-31.7-27.219,14.192-78.211,31.7-78.211S121.261,260.563,121.261,285.871Z" fill="#02aa14"/>
          <path id="Path_49" data-name="Path 49" d="M100.281,297.354l-5.243.361,13.657-9.207-9.753,4.93,1.34-3.852-4.459,5.428-5.23,2.644-.415-18.174,2.77-6.726-2.837,3.782L89.868,266l8.687-11.582-8.747,8.955-.53-23.193-.468,14.845-5.572-6.215,5.482,9.067-.742,23.514-4.852-3.172-4.42-7.835,1.772,6.1L71.8,270.819,87.875,284.68l-2.434,77.178h6.617l-1.4-61.192,1.528-1.03Z" fill="#263238"/>
        </g>
      </g>
    </g>
    <g id="Plants" transform="translate(-11 -29)">
      <path id="Path_50" data-name="Path 50" d="M195.389,387.514s-10.108-10.474-7.271-10.158,8.147,8.146,8.147,8.146.073-17.264,2.6-13.481-.576,13.554-.576,13.554,7.209-11.247,7.193-9.41c-.05,5.683-5.555,10.128-5.555,10.128s11.545-8.552,9.653-5.084-9.273,6.745-9.273,6.745,13.308-2.685,8.58-.793-9.228,3.19-9.228,3.19h-3.677s-12.567-6.305-7.838-5.359A23.442,23.442,0,0,1,195.389,387.514Z" fill="#263238"/>
      <path id="Path_51" data-name="Path 51" d="M249.04,410.464s-10.109-10.473-7.271-10.158,8.146,8.147,8.146,8.147.074-17.265,2.6-13.482-.577,13.554-.577,13.554,7.209-11.247,7.193-9.41c-.049,5.683-5.554,10.128-5.554,10.128s11.544-8.551,9.652-5.084-9.272,6.745-9.272,6.745,13.308-2.685,8.579-.793-9.228,3.19-9.228,3.19h-3.677s-12.567-6.3-7.838-5.359A23.474,23.474,0,0,1,249.04,410.464Z" fill="#263238"/>
      <path id="Path_52" data-name="Path 52" d="M392.943,395.054s-7.292-7.555-5.245-7.327,5.876,5.876,5.876,5.876.053-12.453,1.872-9.724-.416,9.776-.416,9.776,5.2-8.112,5.189-6.787c-.036,4.1-4.007,7.3-4.007,7.3s8.328-6.168,6.963-3.667-6.688,4.865-6.688,4.865,9.6-1.936,6.188-.572-6.657,2.3-6.657,2.3h-2.652s-9.064-4.548-5.653-3.866A16.935,16.935,0,0,1,392.943,395.054Z" fill="#263238"/>
      <path id="Path_53" data-name="Path 53" d="M675.97,376.978s-5.675-5.879-4.082-5.7,4.573,4.574,4.573,4.574.042-9.692,1.457-7.568-.324,7.608-.324,7.608,4.048-6.313,4.039-5.282c-.028,3.19-3.119,5.685-3.119,5.685s6.481-4.8,5.419-2.853-5.2,3.786-5.2,3.786,7.47-1.507,4.816-.445-5.181,1.79-5.181,1.79H676.3s-7.054-3.539-4.4-3.008A13.174,13.174,0,0,1,675.97,376.978Z" fill="#263238"/>
      <path id="Path_54" data-name="Path 54" d="M293.9,395.094s-10.108-10.473-7.271-10.158,8.147,8.147,8.147,8.147.074-17.265,2.6-13.482-.577,13.554-.577,13.554,7.209-11.247,7.193-9.409c-.05,5.682-5.554,10.127-5.554,10.127s11.544-8.551,9.652-5.084-9.273,6.745-9.273,6.745,13.308-2.684,8.58-.793-9.228,3.19-9.228,3.19H294.49s-12.567-6.3-7.838-5.359A23.46,23.46,0,0,1,293.9,395.094Z" fill="#98e5ae"/>
      <path id="Path_55" data-name="Path 55" d="M220.961,388.136s-6.778-7.023-4.875-6.811,5.462,5.463,5.462,5.463.05-11.578,1.741-9.041-.387,9.089-.387,9.089,4.835-7.542,4.824-6.31c-.034,3.811-3.725,6.792-3.725,6.792s7.741-5.735,6.473-3.41-6.218,4.523-6.218,4.523,8.924-1.8,5.753-.531-6.188,2.139-6.188,2.139h-2.466s-8.427-4.228-5.256-3.594A15.73,15.73,0,0,1,220.961,388.136Z" fill="#98e5ae"/>
      <path id="Path_56" data-name="Path 56" d="M136.263,415.877s-6.778-7.023-4.876-6.812,5.463,5.463,5.463,5.463.05-11.577,1.741-9.041-.387,9.089-.387,9.089,4.834-7.541,4.824-6.31c-.034,3.811-3.725,6.792-3.725,6.792s7.741-5.734,6.473-3.409-6.219,4.523-6.219,4.523,8.924-1.8,5.753-.532-6.188,2.139-6.188,2.139h-2.465s-8.427-4.228-5.256-3.594A15.744,15.744,0,0,1,136.263,415.877Z" fill="#98e5ae"/>
      <path id="Path_57" data-name="Path 57" d="M363.03,417.237s-6.778-7.023-4.875-6.811,5.463,5.463,5.463,5.463.049-11.577,1.74-9.041-.387,9.089-.387,9.089,4.835-7.542,4.824-6.31c-.034,3.811-3.725,6.792-3.725,6.792s7.741-5.735,6.473-3.409-6.218,4.522-6.218,4.522,8.924-1.8,5.753-.531-6.188,2.139-6.188,2.139h-2.466s-8.427-4.228-5.256-3.594A15.73,15.73,0,0,1,363.03,417.237Z" fill="#a4e7b6"/>
      <path id="Path_58" data-name="Path 58" d="M473,417.6s-6.778-7.023-4.875-6.811,5.463,5.463,5.463,5.463.049-11.577,1.74-9.041-.387,9.089-.387,9.089,4.835-7.542,4.824-6.31c-.034,3.811-3.725,6.792-3.725,6.792s7.741-5.735,6.473-3.409S476.3,417.9,476.3,417.9s8.924-1.8,5.753-.531-6.188,2.139-6.188,2.139H473.4s-8.427-4.228-5.256-3.594A15.762,15.762,0,0,1,473,417.6Z" fill="#a4e7b6"/>
      <path id="Path_59" data-name="Path 59" d="M677.469,395.635s-10.32-10.693-7.423-10.371,8.317,8.318,8.317,8.318.076-17.627,2.65-13.765-.589,13.838-.589,13.838,7.361-11.482,7.345-9.607c-.051,5.8-5.671,10.34-5.671,10.34s11.786-8.731,9.855-5.19-9.468,6.886-9.468,6.886,13.587-2.741,8.76-.81-9.422,3.257-9.422,3.257h-3.754s-12.83-6.437-8-5.471A23.956,23.956,0,0,1,677.469,395.635Z" fill="#a4e7b6"/>
      <path id="Path_60" data-name="Path 60" d="M62.538,395.635s-10.32-10.693-7.424-10.371,8.318,8.318,8.318,8.318.075-17.627,2.65-13.765-.589,13.838-.589,13.838,7.361-11.482,7.344-9.607c-.051,5.8-5.671,10.34-5.671,10.34s11.786-8.731,9.855-5.19-9.467,6.886-9.467,6.886,13.587-2.741,8.759-.81-9.422,3.257-9.422,3.257H63.137s-12.83-6.437-8-5.471A23.971,23.971,0,0,1,62.538,395.635Z" fill="#98e5ae"/>
      <g id="Group_16" data-name="Group 16">
        <path id="Path_61" data-name="Path 61" d="M113.447,380.537s-10.562-18.213-7.549-19.619,9.238,12.452,9.238,12.452-1.205-26.108,1.606-23.7,5.423,20.887,5.423,20.887,5.623-20.083,7.431-15.866-1.445,16.979-1.445,16.979,8.072-15.372,8.875-10.351-3.815,13.254-3.815,13.254,10.644-10.644,11.447-6.426-2.812,8.435-2.812,8.435,14.058-7.632,10.644-3.414-8.435,9.639-8.435,9.639,13.456-4.819,11.849-2.008-7.631,5.824-7.631,5.824,11.046-2.008,9.841-.2a16.274,16.274,0,0,1-4.01,3.581H104.09s-13.255-4.786-8.033-5.188a22.953,22.953,0,0,1,10.041,1.807s-16.267-11.045-8.635-11.849,13.857,8.837,13.857,8.837-10.845-15.263-7.029-12.853Z" fill="#98e5ae"/>
        <path id="Path_62" data-name="Path 62" d="M114.127,385.718s-13.636-14.128-9.809-13.7,10.99,10.99,10.99,10.99.1-23.29,3.5-18.187-.779,18.285-.779,18.285,9.726-15.173,9.7-12.694c-.067,7.666-7.493,13.662-7.493,13.662s15.573-11.536,13.022-6.858-12.509,9.1-12.509,9.1,17.952-3.621,11.573-1.07-12.449,4.3-12.449,4.3h-4.96s-16.952-8.506-10.573-7.23A31.662,31.662,0,0,1,114.127,385.718Z" fill="#263238" stroke="#263238" stroke-miterlimit="10" stroke-width="1"/>
      </g>
      <g id="Group_17" data-name="Group 17">
        <path id="Path_63" data-name="Path 63" d="M563.2,412.582S543.24,378.157,548.934,375.5,566.4,399.034,566.4,399.034s-2.277-49.347,3.037-44.792,10.249,39.478,10.249,39.478,10.628-37.959,14.045-29.988-2.731,32.092-2.731,32.092,15.257-29.055,16.776-19.565-7.213,25.053-7.213,25.053,20.119-20.119,21.637-12.147-5.314,15.943-5.314,15.943,26.571-14.425,20.118-6.453-15.943,18.22-15.943,18.22,25.433-9.11,22.4-3.8-14.424,11.008-14.424,11.008,20.877-3.8,18.6-.379-7.58,6.77-7.58,6.77h-94.53s-25.053-9.048-15.184-9.807,18.979,3.416,18.979,3.416-30.746-20.877-16.322-22.4,26.192,16.7,26.192,16.7-20.5-28.849-13.286-24.293Z" fill="#a4e7b6"/>
        <path id="Path_64" data-name="Path 64" d="M564.488,422.375s-25.774-26.7-18.539-25.9,20.772,20.772,20.772,20.772.187-44.021,6.618-34.376-1.471,34.56-1.471,34.56,18.383-28.677,18.342-23.993c-.127,14.49-14.163,25.824-14.163,25.824s29.435-21.8,24.612-12.963-23.644,17.2-23.644,17.2,33.933-6.845,21.876-2.022-23.53,8.134-23.53,8.134h-9.375S533.944,413.533,546,415.945,564.488,422.375,564.488,422.375Z" fill="#263238" stroke="#263238" stroke-miterlimit="10" stroke-width="1"/>
      </g>
    </g>
    <g id="Rocks" transform="translate(-11 -29)">
      <g id="Group_20" data-name="Group 20">
        <g id="Group_18" data-name="Group 18">
          <path id="Path_65" data-name="Path 65" d="M147.847,381.569s2.042-1.846,3.793-1.846,7.1,2.571,7.1,2.571,2.139,3.3,2.334,3.494,2.82,1.318,3.015,1.78.583,1.978.583,1.978H148.333l-3.015-7.911Z" fill="#fff" stroke="#263238" stroke-miterlimit="10" stroke-width="1"/>
          <path id="Path_66" data-name="Path 66" d="M151.64,379.723l-.1,1.556s4.182,2.431,4.084,3.307a16.357,16.357,0,0,1-.972,2.917l2.14,2.237H145.416l.875-6.71S148.722,379.528,151.64,379.723Z" fill="#263238"/>
        </g>
        <g id="Group_19" data-name="Group 19">
          <path id="Path_67" data-name="Path 67" d="M126.548,380.6s8.169-12.254,10.017-12.449a9.072,9.072,0,0,1,7.2,3.891,44.537,44.537,0,0,1,2.918,7.78c.1.292.486.486,2.723,4.085s2.14,5.641,2.14,5.641H119.934a19.176,19.176,0,0,1,1.848-5.058,7.253,7.253,0,0,1,3.89-2.528Z" fill="#fff" stroke="#263238" stroke-miterlimit="10" stroke-width="1"/>
          <path id="Path_68" data-name="Path 68" d="M139.094,389.351s-.876-2.139-.973-2.431-.1-3.112-.389-4.28a30.136,30.136,0,0,0-2.723-4.765l1.751-5.057-.876-.681,1.459-3.6-.817-.378c-1.915.344-9.978,12.438-9.978,12.438l-.876,1.362a7.253,7.253,0,0,0-3.89,2.528,18.336,18.336,0,0,0-1.8,4.863Z" fill="#263238"/>
        </g>
      </g>
      <g id="Group_23" data-name="Group 23">
        <g id="Group_21" data-name="Group 21">
          <path id="Path_69" data-name="Path 69" d="M462.839,384.617a4.581,4.581,0,0,1,2.379-1.158c1.1,0,4.451,1.612,4.451,1.612s1.342,2.067,1.464,2.191,1.768.827,1.89,1.116.366,1.24.366,1.24H463.144l-1.89-4.96Z" fill="#fff" stroke="#263238" stroke-miterlimit="10" stroke-width="1"/>
          <path id="Path_70" data-name="Path 70" d="M465.218,383.459l-.061.976s2.622,1.525,2.561,2.073a10.266,10.266,0,0,1-.61,1.83l1.342,1.4h-7.135l.549-4.207S463.388,383.337,465.218,383.459Z" fill="#263238"/>
        </g>
        <g id="Group_22" data-name="Group 22">
          <path id="Path_71" data-name="Path 71" d="M449.485,384.008s5.122-7.683,6.281-7.8a5.686,5.686,0,0,1,4.512,2.439,27.938,27.938,0,0,1,1.83,4.878c.061.183.3.305,1.707,2.562a7,7,0,0,1,1.342,3.536H445.338a12.021,12.021,0,0,1,1.159-3.171,4.55,4.55,0,0,1,2.439-1.585Z" fill="#fff" stroke="#263238" stroke-miterlimit="10" stroke-width="1"/>
          <path id="Path_72" data-name="Path 72" d="M457.351,389.5s-.549-1.341-.61-1.524-.061-1.951-.244-2.683a18.887,18.887,0,0,0-1.707-2.988l1.1-3.171-.549-.427.914-2.256-.512-.238c-1.2.216-6.256,7.8-6.256,7.8l-.549.854a4.55,4.55,0,0,0-2.439,1.585,11.513,11.513,0,0,0-1.132,3.049Z" fill="#263238"/>
        </g>
      </g>
      <g id="Group_26" data-name="Group 26">
        <g id="Group_24" data-name="Group 24">
          <path id="Path_73" data-name="Path 73" d="M628.223,414.532s3.86-3.489,7.169-3.489,13.419,4.859,13.419,4.859,4.044,6.231,4.412,6.6,5.331,2.492,5.7,3.364,1.1,3.738,1.1,3.738H629.142l-5.7-14.953Z" fill="#fff" stroke="#263238" stroke-miterlimit="10" stroke-width="1"/>
          <path id="Path_74" data-name="Path 74" d="M635.392,411.043l-.184,2.941s7.9,4.6,7.721,6.25a30.931,30.931,0,0,1-1.839,5.515l4.045,4.228H623.627l1.654-12.684S629.877,410.675,635.392,411.043Z" fill="#263238"/>
        </g>
        <g id="Group_25" data-name="Group 25">
          <path id="Path_75" data-name="Path 75" d="M587.965,412.7s15.441-23.162,18.934-23.53,10.846,2.574,13.6,7.354,5.331,14.154,5.515,14.706.919.919,5.147,7.72,4.044,10.662,4.044,10.662H575.465s1.286-6.066,3.492-9.559,7.353-4.779,7.353-4.779Z" fill="#fff" stroke="#263238" stroke-miterlimit="10" stroke-width="1"/>
          <path id="Path_76" data-name="Path 76" d="M611.678,429.242s-1.654-4.045-1.838-4.6-.184-5.883-.735-8.088-5.147-9.008-5.147-9.008l3.308-9.559-1.654-1.287,2.757-6.8-1.543-.715c-3.62.649-18.861,23.509-18.861,23.509l-1.655,2.574s-5.147,1.287-7.353,4.779c-1.886,2.987-3.1,7.844-3.409,9.192Z" fill="#263238"/>
        </g>
      </g>
    </g>
  </g>
</svg>
